<?xml version="1.0"?>
<svg xmlns="http://www.w3.org/2000/svg" height="512px" viewBox="0 0 64 64" width="512px" class=""><g><g id="outline"><path d="m32 52a5 5 0 1 0 -5-5 5.006 5.006 0 0 0 5 5zm0-8a3 3 0 1 1 -3 3 3 3 0 0 1 3-3z" data-original="#000000" class="active-path" data-old_color="#000000" fill="#4999F6"/><path d="m28.051 20.684-1 3 1.9.632.77-2.316h2.279v-2h-3a1 1 0 0 0 -.949.684z" data-original="#000000" class="active-path" data-old_color="#000000" fill="#4999F6"/><path d="m55 40a4 4 0 0 0 -4 4v3.382l-10-5v-15.382a1.752 1.752 0 0 0 -.02-.2l-1.98-9.9v-7.9a.994.994 0 0 0 -.294-.708l-6-6a1 1 0 0 0 -1.414 0l-6 6a.994.994 0 0 0 -.292.708v7.9l-1.98 9.9a1.752 1.752 0 0 0 -.02.2v15.382l-10 5v-3.382a4 4 0 0 0 -8 0v13a1.794 1.794 0 0 0 .03.242l1 4a1 1 0 0 0 .97.758h4a1 1 0 0 0 .97-.758l1-4a1.794 1.794 0 0 0 .03-.242v-3h10v1a1.794 1.794 0 0 0 .03.242l1 4a1 1 0 0 0 .97.758h14a1 1 0 0 0 .97-.758l1-4a1.794 1.794 0 0 0 .03-.242v-1h10v3a1.794 1.794 0 0 0 .03.242l1 4a1 1 0 0 0 .97.758h4a1 1 0 0 0 .97-.758l1-4a1.794 1.794 0 0 0 .03-.242v-13a4 4 0 0 0 -4-4zm-44.781 20h-2.438l-.5-2h3.438zm.781-4h-4v-10h4zm-4-12a2 2 0 0 1 4 0zm16 8h-10v-2.382l10-5zm9-47.586 3.586 3.586h-7.172zm-5 5.586h10v2h-10zm0 4h10v2h-10zm-.18 4h10.36l1.6 8h-13.56zm.18 40h-1.219l-.5-2h1.719zm4 0h-2v-2h2zm4 0h-2v-2h2zm3.219 0h-1.219v-2h1.719zm.781-4h-14v-14h14zm0-16h-14v-6h14zm0-8h-14v-2h14zm12 22h-10v-7.382l10 5zm5.219 8h-2.438l-.5-2h3.438zm.781-4h-4v-10h4zm-4-12a2 2 0 0 1 4 0z" data-original="#000000" class="active-path" data-old_color="#000000" fill="#4999F6"/><path d="m27 34h2v2h-2z" data-original="#000000" class="active-path" data-old_color="#000000" fill="#4999F6"/><path d="m31 34h2v2h-2z" data-original="#000000" class="active-path" data-old_color="#000000" fill="#4999F6"/><path d="m35 34h2v2h-2z" data-original="#000000" class="active-path" data-old_color="#000000" fill="#4999F6"/><path d="m19 48h2v2h-2z" data-original="#000000" class="active-path" data-old_color="#000000" fill="#4999F6"/><path d="m43 48h2v2h-2z" data-original="#000000" class="active-path" data-old_color="#000000" fill="#4999F6"/></g></g> </svg>
