<?xml version="1.0"?>
<svg xmlns="http://www.w3.org/2000/svg" id="Layer_1" enable-background="new 0 0 512 512" height="512px" viewBox="0 0 512 512" width="512px" class=""><g><g><path d="m443.071 320.929-117.071-117.072v-113.857c0-2.164-.702-4.27-2-6l-60-80c-1.889-2.518-4.853-4-8-4-3.148 0-6.111 1.482-8 4l-60 80c-1.298 1.73-2 3.836-2 6v113.857l-117.071 117.072c-1.875 1.876-2.929 4.419-2.929 7.071v60c0 5.522 4.478 10 10 10h90v10c0 5.522 4.477 10 10 10h160c5.522 0 10-4.478 10-10v-10h90c5.522 0 10-4.478 10-10v-60c0-2.652-1.054-5.195-2.929-7.071zm-17.071 11.214v3.857h-80v-28c0-5.522-4.478-10-10-10h-10v-65.857zm-240-14.143h60v40h-60zm20-52h100v32h-100zm60 52h60v40h-60zm-10-291.333 50 66.666v114.662.01 37.995h-100v-37.995c0-.003 0-.007 0-.01v-114.662zm-70 205.476v65.857h-10c-5.523 0-10 4.478-10 10v28h-80v-3.857zm-100 145.857v-22h80v22zm100 0h60v20h-60zm140 20h-60v-20h60zm20-20v-22h80v22z" data-original="#000000" class="active-path" data-old_color="#000000" fill="#4999F6"/><path d="m216 436c-5.523 0-10 4.478-10 10v56c0 5.522 4.477 10 10 10s10-4.478 10-10v-56c0-5.522-4.477-10-10-10z" data-original="#000000" class="active-path" data-old_color="#000000" fill="#4999F6"/><path d="m296 448c-5.522 0-10 4.478-10 10v44c0 5.522 4.478 10 10 10s10-4.478 10-10v-44c0-5.522-4.478-10-10-10z" data-original="#000000" class="active-path" data-old_color="#000000" fill="#4999F6"/><path d="m270.221 176h-28.442c-3.192 0-5.779-2.587-5.779-5.779v-68.442c0-3.192 2.587-5.779 5.779-5.779h28.442c3.192 0 5.779 2.587 5.779 5.779v68.442c0 3.192-2.587 5.779-5.779 5.779z" data-original="#000000" class="active-path" data-old_color="#000000" fill="#4999F6"/></g></g> </svg>
